<?xml version="1.0" encoding="utf-8"?>
<!-- Generator: Adobe Illustrator 24.2.0, SVG Export Plug-In . SVG Version: 6.00 Build 0)  -->
<svg version="1.1" id="Layer_1" xmlns="http://www.w3.org/2000/svg" xmlns:xlink="http://www.w3.org/1999/xlink" x="0px" y="0px"
	 viewBox="0 0 445.69 332.48" style="enable-background:new 0 0 445.69 332.48;" xml:space="preserve">
<style type="text/css">
	.st0{fill:#82294B;}
	.st1{fill:#91979B;}
	.st2{fill:#9EACB5;}
</style>
<g>
	<path class="st0" d="M51.26,195.02c2.83,2.83,4.59,6.73,4.59,11.07s-1.76,8.24-4.59,11.07c-2.87,2.87-6.81,4.59-11.16,4.59
		c-4.31,0-8.2-1.72-11.07-4.59c-2.79-2.83-4.55-6.73-4.55-11.07s1.76-8.24,4.55-11.07c2.87-2.87,6.77-4.59,11.07-4.59
		C44.45,190.43,48.38,192.15,51.26,195.02z M40.1,193.18c-3.53,0-6.77,1.44-9.11,3.73c-2.34,2.34-3.77,5.62-3.77,9.19
		s1.44,6.85,3.77,9.19s5.58,3.77,9.11,3.77c3.65,0,6.85-1.44,9.19-3.77s3.77-5.62,3.77-9.19s-1.44-6.85-3.77-9.19
		C46.95,194.61,43.75,193.18,40.1,193.18z"/>
	<path class="st0" d="M74.35,193.63c4.72,0,8.45,3.36,8.45,7.63c0,2.13-1.07,4.31-2.95,5.74c2.91,1.27,4.84,3.98,4.84,6.93
		c0,4.14-3.81,7.59-8.45,7.59H58.48v-4.47h2.79v1.97h14.97c3.16,0,5.62-2.38,5.62-5.09c0-2.83-2.46-5.17-5.62-5.17H58.48v-15.13
		H74.35z M61.27,196.09v10.13h13.08c3.16,0,5.7-2.21,5.7-4.96c0-2.87-2.54-5.17-5.7-5.17H61.27z"/>
	<path class="st0" d="M95.73,193.75h16.08v2.46H95.73c-7.83,0-7.83,10.17,0,10.17c2.95,0,5.78,0,8.7,0c11.57,0,11.57,15.13,0,15.13
		H88.34v-2.5h16.08c7.83,0,7.83-10.21,0-10.21c-2.91,0-5.74,0-8.7,0C84.24,208.8,84.24,193.75,95.73,193.75z"/>
	<path class="st0" d="M138.68,196.29h-22.56v-2.5h22.56V196.29z M138.68,221.48h-22.56V204.5h2.75v1.89h16.04v2.46h-16.04v10.17
		h19.81V221.48z"/>
	<path class="st0" d="M141.96,221.48c0-4.22,0-8.45,0-12.71h2.71v1.89h8.86c4.39,0,7.96-3.16,7.96-7.22c0-3.94-3.57-7.14-7.96-7.14
		h-11.57v-2.5h11.57c5.95,0,10.75,4.31,10.75,9.64c0,3.61-2.26,6.89-5.7,8.61c1.48,1.07,2.42,2.58,3.16,4.14
		c1.07,2.42,2.3,4.8,2.54,5.29h-2.95c-0.62-1.11-1.52-2.87-2.13-4.35c-1.19-2.58-2.34-4.02-5.66-3.98h-8.86v8.33H141.96z"/>
	<path class="st0" d="M191.18,193.79l-10.71,27.69h-2.87l-10.66-27.69h2.91l9.19,23.87l9.23-23.87H191.18z"/>
	<path class="st0" d="M211.08,221.48l-9.23-23.87l-9.19,23.87h-2.91l10.66-27.69h2.87l10.71,27.69H211.08z"/>
	<path class="st0" d="M222.94,221.48v-25.18h-10.13v-2.5h22.97v2.5H225.6v25.18H222.94z"/>
	<path class="st0" d="M265.27,197.69c2.83,2.54,4.59,6.03,4.59,9.97c0,3.9-1.76,7.38-4.59,9.97c-2.87,2.58-6.81,4.1-11.16,4.1
		c-4.31,0-8.2-1.52-11.07-4.1c-2.79-2.58-4.55-6.07-4.55-9.97c0-3.94,1.76-7.42,4.55-9.97c2.87-2.58,6.77-4.14,11.07-4.14
		C258.46,193.55,262.4,195.1,265.27,197.69z M254.11,196.01c-3.53,0-6.77,1.31-9.11,3.36c-2.34,2.09-3.77,5.04-3.77,8.29
		c0,3.2,1.44,6.15,3.77,8.24s5.58,3.4,9.11,3.4c3.65,0,6.85-1.31,9.19-3.4s3.77-5.04,3.77-8.24c0-3.24-1.44-6.19-3.77-8.29
		C260.96,197.32,257.76,196.01,254.11,196.01z"/>
	<path class="st0" d="M272.95,221.48c0-4.22,0-8.45,0-12.71h2.71v1.89h8.86c4.39,0,7.96-3.16,7.96-7.22c0-3.94-3.57-7.14-7.96-7.14
		h-11.57v-2.5h11.57c5.95,0,10.75,4.31,10.75,9.64c0,3.61-2.26,6.89-5.7,8.61c1.48,1.07,2.42,2.58,3.16,4.14
		c1.07,2.42,2.3,4.8,2.54,5.29h-2.95c-0.62-1.11-1.52-2.87-2.13-4.35c-1.19-2.58-2.34-4.02-5.66-3.98h-8.86v8.33H272.95z"/>
	<path class="st0" d="M298.3,221.48v-27.69h2.79v27.69H298.3z"/>
	<path class="st0" d="M330.78,197.69c2.83,2.54,4.59,6.03,4.59,9.97c0,3.9-1.76,7.38-4.59,9.97c-2.87,2.58-6.81,4.1-11.16,4.1
		c-4.31,0-8.2-1.52-11.07-4.1c-2.79-2.58-4.55-6.07-4.55-9.97c0-3.94,1.76-7.42,4.55-9.97c2.87-2.58,6.77-4.14,11.07-4.14
		C323.97,193.55,327.91,195.1,330.78,197.69z M319.63,196.01c-3.53,0-6.77,1.31-9.11,3.36c-2.34,2.09-3.77,5.04-3.77,8.29
		c0,3.2,1.44,6.15,3.77,8.24s5.58,3.4,9.11,3.4c3.65,0,6.85-1.31,9.19-3.4s3.77-5.04,3.77-8.24c0-3.24-1.44-6.19-3.77-8.29
		C326.47,197.32,323.28,196.01,319.63,196.01z"/>
</g>
<g>
	<path class="st1" d="M139.58,231.2H117.5v-2.79h22.07V231.2z M139.58,259.17H117.5V240.3h2.69v2.09h15.69v2.75h-15.69v11.28h19.38
		V259.17z"/>
	<path class="st1" d="M142.38,259.21v-27.77h2.81l13.4,20.3l13.48-20.3h2.73v27.77h-2.73v-22.97c-4.25,6.36-8.39,12.8-12.68,19.07
		h-1.56c-4.17-6.28-8.43-12.71-12.64-19.07v22.97H142.38z"/>
	<path class="st1" d="M177.97,259.17v-12.71h2.69v1.89h8.67c4.37,0,7.79-3.45,7.79-7.22c0-3.98-3.69-7.14-7.79-7.14h-11.36v-2.5
		h11.36c5.82,0,10.43,4.59,10.43,9.64c0,5.46-5.06,9.72-10.43,9.72h-8.67v8.33H177.97z"/>
	<path class="st1" d="M203.05,259.17c0-4.22,0-8.45,0-12.71h2.65v1.89h8.67c4.29,0,7.79-3.16,7.79-7.22c0-3.94-3.49-7.14-7.79-7.14
		h-11.32v-2.5h11.32c5.82,0,10.51,4.31,10.51,9.64c0,3.61-2.21,6.89-5.58,8.61c1.44,1.07,2.37,2.58,3.09,4.14
		c1.04,2.42,2.25,4.8,2.49,5.29h-2.89c-0.6-1.11-1.48-2.87-2.09-4.35c-1.16-2.58-2.29-4.02-5.54-3.98h-8.67v8.33H203.05z"/>
	<path class="st1" d="M250.11,233.98h-22.07v-2.5h22.07V233.98z M250.11,259.17h-22.07v-16.98h2.69v1.89h15.69v2.46h-15.69v10.17
		h19.38V259.17z"/>
	<path class="st1" d="M261.27,231.44H277v2.46h-15.73c-7.66,0-7.66,10.17,0,10.17c2.89,0,5.66,0,8.51,0c11.32,0,11.32,15.13,0,15.13
		h-15.73v-2.5h15.73c7.67,0,7.67-10.21,0-10.21c-2.85,0-5.62,0-8.51,0C250.03,246.49,250.03,231.44,261.27,231.44z"/>
	<path class="st1" d="M301.51,259.17l-9.03-23.87l-8.99,23.87h-2.85l10.43-27.69h2.81l10.47,27.69H301.51z"/>
	<path class="st1" d="M306.96,259.17c0-4.22,0-8.45,0-12.71h2.65v1.89h8.67c4.29,0,7.79-3.16,7.79-7.22c0-3.94-3.49-7.14-7.79-7.14
		h-11.32v-2.5h11.32c5.82,0,10.51,4.31,10.51,9.64c0,3.61-2.21,6.89-5.58,8.61c1.44,1.07,2.37,2.58,3.09,4.14
		c1.04,2.42,2.25,4.8,2.49,5.29h-2.89c-0.6-1.11-1.48-2.87-2.09-4.35c-1.16-2.58-2.29-4.02-5.54-3.98h-8.67v8.33H306.96z"/>
	<path class="st1" d="M331.76,259.17v-27.69h2.73v27.69H331.76z"/>
	<path class="st1" d="M357.92,259.17l-9.03-23.87l-8.99,23.87h-2.85l10.43-27.69h2.81l10.47,27.69H357.92z"/>
	<path class="st1" d="M365.74,231.48v25.22h17.14v2.46H363.1v-27.69H365.74z"/>
</g>
<g>
	<path class="st0" d="M217.43,273h7.22v13.04c0,1.29-0.22,2.51-0.65,3.66c-0.43,1.15-1.11,2.15-2.03,3.01s-1.89,1.46-2.9,1.81
		c-1.41,0.49-3.09,0.73-5.07,0.73c-1.14,0-2.38-0.07-3.73-0.22c-1.35-0.15-2.47-0.45-3.38-0.89c-0.91-0.44-1.73-1.07-2.48-1.89
		c-0.75-0.82-1.27-1.66-1.54-2.52c-0.45-1.39-0.67-2.63-0.67-3.7V273h7.22v13.35c0,1.19,0.35,2.13,1.06,2.8
		c0.71,0.67,1.69,1.01,2.95,1.01c1.25,0,2.22-0.33,2.93-0.99c0.71-0.66,1.06-1.6,1.06-2.81V273z"/>
	<path class="st0" d="M229.5,273h6.76l8.82,12.11V273h6.82v21.89h-6.82l-8.77-12.02v12.02h-6.81V273z"/>
	<path class="st0" d="M257,273h7.25v21.89H257V273z"/>
	<path class="st0" d="M267.15,273h7.57l5.27,15.75l5.21-15.75h7.35l-8.7,21.89H276L267.15,273z"/>
	<path class="st0" d="M307.44,291.28h-8.22l-1.14,3.61h-7.39l8.81-21.89h7.9l8.8,21.89h-7.58L307.44,291.28z M305.94,286.55
		l-2.59-7.87l-2.56,7.87H305.94z"/>
	<path class="st0" d="M318.49,273h7.24v16.5h11.3v5.39h-18.54V273z"/>
	<path class="st0" d="M340.32,273h7.24v16.5h11.3v5.39h-18.54V273z"/>
	<path class="st0" d="M362.13,273h19.4v4.67h-12.15v3.48h11.27v4.46h-11.27v4.32h12.5v4.96h-19.75V273z"/>
</g>
<g>
	<g>
		<g>
			<path class="st1" d="M230.94,140.96c0,6.33,0,12.66,0,18.98c0,8.62,0,17.25,0,25.87c0,0.33-0.22,1.73,0,2
				c0.11,0.13,0.72,0.04,0.92,0.04c2.73,0,5.46,0,8.19,0c9.58,0,19.17,0,28.75,0c4.31,0,8.62,0,12.93,0c2.3,0,4.62,0.1,6.91,0
				c0.1,0,0.21,0,0.31,0c0.54,0,5.5-1.49,5.5-1.47c-1.17-4.6,0.59-9.5,4.98-11.59c1.87-0.89-5.2,1.01-3.07,0.83
				c0.29-0.02,0.57-0.06,0.85-0.07c0.64-0.03,1.28-0.01,1.92,0.07c1.32,0.17,2.61,0.6,3.73,1.33c1.89,1.23,3.16,3.2,3.71,5.37
				c0.28,1.08,0.38,2.21,0.32,3.33c-0.02,0.37-0.44,2.08-0.3,2.21c0.3,0.26,2.1,0,2.49,0c3.63,0,7.26,0,10.89,0
				c2.76,0,5.51,0,8.27,0c0.54,0,5.5-1.27,5.5-1.47c0-10.11,0-20.23,0-30.34c0-5.09,0-10.17,0-15.26c0-0.45,0.16-1.12-0.17-1.3
				c-0.48-0.26-1.82,0-2.35,0c-9.9,0-19.79,0-29.69,0c-13.64,0-27.27,0-40.91,0c-5.3,0-10.6,0-15.89,0c-2.64,0-5.3-0.1-7.94,0
				c-0.12,0-0.25,0-0.37,0c-0.86,0-1.93,0.49-2.76,0.71C232.86,140.41,231.79,140.96,230.94,140.96c6.58,0,13.15,0,19.73,0
				c13.44,0,26.89,0,40.33,0c10.88,0,21.75,0,32.63,0c1.22,0,2.43,0,3.65,0c0.33,0,0.83-0.1,0.98,0.11c0.14,0.2,0,1.03,0,1.27
				c0,0.84,0,1.68,0,2.51c0,2.61,0,5.21,0,7.82c0,11.48,0,22.96,0,34.44c0,0.25,0,0.49,0,0.74c1.83-0.49,3.67-0.98,5.5-1.47
				c-6.41,0-12.83,0-19.24,0c-0.32,0-2.23,0.25-2.45,0c-0.07-0.08,0.21-1.05,0.24-1.23c0.09-0.6,0.13-1.21,0.12-1.82
				c-0.02-1.21-0.24-2.42-0.67-3.55c-0.87-2.31-2.62-4.21-4.95-5.1c-3.14-1.2-6.23-0.31-9.33,0.52c-3.1,0.84-5.87,1.72-7.56,4.68
				c-1.38,2.41-1.63,5.31-0.95,7.97c1.83-0.49,3.67-0.98,5.5-1.47c-5.51,0-11.03,0-16.54,0c-9.8,0-19.6,0-29.41,0
				c-3.29,0-6.57,0-9.86,0c-0.45,0-1.68,0.23-2.07,0c-0.23-0.13-0.14-0.35-0.14-0.71c0-7.79,0-15.58,0-23.37c0-4.75,0-9.5,0-14.25
				c0-1.75,0-3.5,0-5.24c0-0.93,0.17-2.04,0-2.95c-0.02-0.12,0-0.26,0-0.38c0,0.08-2.54,0.65-2.76,0.71
				C233.45,140.25,230.94,140.78,230.94,140.96z"/>
		</g>
	</g>
	<g>
		<g>
			<path class="st1" d="M339.76,137.58c-4.02,0-8.04,0-12.06,0c-9.45,0-18.91,0-28.36,0c-11.12,0-22.23,0-33.35,0
				c-8.88,0-17.75,0-26.63,0c-2.43,0-4.86,0-7.3,0c-0.49,0-0.98,0.01-1.47,0c-2.37-0.06-4.41-1.8-4.41-4.27
				c0-1.87,1.22-3.41,2.93-4.05c-0.12,0.04-0.25,0.08-0.37,0.11c-1.38,0.39-2.76,0.77-4.13,1.16c0.12,0,0.23-0.01,0.35-0.01
				c0,0,0,0,0,0c0.01,0,0.02,0,0.02,0c0.05,0,0.09,0,0.14,0c0.2,0,0.39,0,0.59,0c0.78,0,1.56,0,2.34,0c2.91,0,5.82,0,8.72,0
				c9.46,0,18.91,0,28.37,0c11.12,0,22.24,0,33.36,0c8.93,0,17.86,0,26.79,0c2.45,0,4.89,0,7.34,0c0.5,0,0.99-0.01,1.49,0
				c2.37,0.06,4.42,1.8,4.42,4.27c0,1.87-1.22,3.41-2.93,4.05c0.12-0.04,0.25-0.08,0.37-0.11
				C340.27,137.86,341.53,137.48,339.76,137.58c-0.89,0.04-1.9,0.48-2.76,0.71c-0.85,0.23-1.87,0.73-2.74,0.76
				c1.16-0.05,2.3-0.44,3.42-0.74c1.27-0.34,2.7-0.58,3.9-1.15c1.71-0.81,2.71-2.68,2.41-4.56c-0.35-2.2-2.29-3.56-4.42-3.58
				c-1.63-0.02-3.26,0-4.88,0c-8.15,0-16.3,0-24.44,0c-11.24,0-22.48,0-33.71,0c-10.21,0-20.43,0-30.64,0
				c-5.07,0-10.14-0.06-15.21,0c-0.13,0-0.26,0-0.39,0.01c-1.22,0.07-2.44,0.51-3.61,0.83c-1.2,0.32-2.56,0.54-3.68,1.12
				c-3.83,1.99-2.47,7.83,1.78,8.06c1.16,0.06,2.34,0.01,3.5,0.01c7.49,0,14.97,0,22.46,0c11.08,0,22.16,0,33.24,0
				c10.56,0,21.12,0,31.68,0c5.92,0,11.83,0,17.75,0c0.28,0,0.57,0,0.85,0c0.86,0,1.93-0.49,2.76-0.71
				C337.84,138.13,338.9,137.58,339.76,137.58z"/>
		</g>
	</g>
	<g>
		<g>
			<path class="st1" d="M333.76,124.62c-3.1,0-6.19,0-9.29,0c-7.44,0-14.88,0-22.33,0c-9.16,0-18.31,0-27.47,0
				c-8.11,0-16.21,0-24.32,0c-4.43,0-8.86,0-13.29,0c-0.09,0-0.56,0.07-0.63,0c-0.18-0.17,0-1.43,0-1.67c0-1.12,0-2.23,0-3.35
				c0-5.15,0.31-10.18,1.78-15.16c3.5-11.81,12.1-21.78,23.24-27.01c1.47-0.69,2.99-1.3,4.53-1.82c0.32-0.11,0.64-0.21,0.96-0.31
				c1.52-0.49-3.94,0.97-1.89,0.52c0.91-0.2,1.83-0.37,2.75-0.51c2.35-0.36,4.72-0.49,7.09-0.49c3.41,0,6.83-0.03,10.24,0
				c12.52,0.11,24.57,5.73,32.71,15.25c3.97,4.65,6.95,10.13,8.66,16.01c1.46,5.01,1.74,10.06,1.74,15.24c0,1.59,0,3.18,0,4.77
				c0-0.08,2.54-0.65,2.76-0.71C331.25,125.32,333.76,124.79,333.76,124.62c0-3.76,0.16-7.56-0.14-11.31
				c-0.5-6.32-2.41-12.5-5.55-18.01c-6.2-10.87-17.05-18.72-29.35-21.13c-4.6-0.9-9.22-0.82-13.87-0.82
				c-4.59,0-9.12-0.04-13.65,0.87c-6.74,1.35-13.55,3.36-19.45,6.96c-5.31,3.25-9.91,7.64-13.4,12.8
				c-3.52,5.21-5.88,11.17-6.87,17.38c-0.73,4.54-0.55,9.15-0.55,13.73c0,0.66-0.2,0.85,0.27,1c0.4,0.13,1.06,0,1.48,0
				c2.09,0,4.17,0,6.26,0c7.4,0,14.8,0,22.19,0c9.26,0,18.52,0,27.77,0c8.35,0,16.7,0,25.06,0c4.55,0,9.1,0,13.65,0
				c0.21,0,0.42,0,0.63,0c0.86,0,1.93-0.49,2.76-0.71C331.84,125.16,332.91,124.62,333.76,124.62z"/>
		</g>
	</g>
	<g>
		<g>
			<path class="st1" d="M362.73,91.22c-2.73,1.94-5.47,3.89-8.2,5.83c1.83-0.49,3.67-0.98,5.5-1.47c-2.84-4.93-5.69-9.85-8.53-14.78
				c-1.92-3.32-3.84-6.65-5.76-9.97c-0.61-1.07-1.23-2.13-1.84-3.2c-0.16-0.28-0.57-0.77-0.48-1.02c0.13-0.36,1.25-0.89,1.56-1.11
				c0.92-0.66,1.84-1.31,2.77-1.97c1.27-0.9,2.53-1.8,3.8-2.7c-1.83,0.49-3.67,0.98-5.5,1.47c4.88,8.45,9.76,16.91,14.64,25.36
				C361.36,88.86,362.05,90.04,362.73,91.22c0.07,0.13,2.53-0.65,2.76-0.71c0.22-0.06,2.69-0.86,2.74-0.76
				c-4.88-8.45-9.76-16.91-14.64-25.36c-0.68-1.18-1.37-2.37-2.05-3.55c-0.09-0.15-5.11,1.2-5.5,1.47c-2.54,1.8-5.08,3.61-7.61,5.41
				c-0.59,0.42-0.65,0.32-0.31,0.91c0.51,0.88,1.01,1.75,1.52,2.63c3.86,6.68,7.72,13.36,11.57,20.05c1.11,1.91,2.21,3.83,3.32,5.74
				c0.09,0.15,5.11-1.2,5.5-1.47c2.73-1.94,5.47-3.89,8.2-5.83c-0.13,0.09-0.73,0.17-0.81,0.2c-0.65,0.17-1.3,0.34-1.95,0.51
				C364.69,90.67,363.41,90.74,362.73,91.22z"/>
		</g>
	</g>
	<g>
		<g>
			<path class="st1" d="M353.19,95.44c-5.99,3.46-11.99,6.92-17.98,10.38c-0.85,0.49-1.7,0.98-2.55,1.47
				c1.83-0.49,3.67-0.98,5.5-1.47c-0.16-5.48-1.52-10.88-4.5-15.53c-1.32-2.06-2.92-3.93-4.73-5.56c-0.83-0.75-1.71-1.45-2.62-2.09
				c-0.22-0.15-2.42-1.44-2.39-1.56c0.07-0.27,1.41-0.82,1.64-0.94c1.24-0.72,2.48-1.43,3.72-2.15c3.06-1.77,6.11-3.53,9.17-5.3
				c1.99-1.15,3.98-2.3,5.97-3.45c-1.83,0.49-3.67,0.98-5.5,1.47c4.16,7.21,8.33,14.42,12.49,21.63
				C352,93.38,352.6,94.41,353.19,95.44c0.07,0.13,2.53-0.65,2.76-0.71c0.22-0.06,2.69-0.86,2.74-0.76
				c-4.16-7.21-8.33-14.42-12.49-21.63c-0.59-1.03-1.19-2.06-1.78-3.09c-0.1-0.18-5.07,1.23-5.5,1.47
				c-4.72,2.73-9.44,5.45-14.16,8.18c-1.3,0.75-2.6,1.5-3.89,2.25c-0.46,0.27-0.92,0.53-1.38,0.8c-0.22,0.13-0.76,0.32-0.91,0.52
				c-0.21,0.29-0.06,0.17,0.36,0.43c1.09,0.66,2.15,1.38,3.15,2.18c1.86,1.47,3.53,3.17,4.95,5.07c3.72,4.96,5.45,11,5.62,17.15
				c-0.01-0.25,5-1.18,5.5-1.47c5.99-3.46,11.99-6.92,17.98-10.38c0.85-0.49,1.7-0.98,2.55-1.47c-0.71,0.41-1.96,0.49-2.76,0.71
				C355.09,94.9,353.96,94.99,353.19,95.44z"/>
		</g>
	</g>
</g>
<g>
	<g>
		<path class="st2" d="M302.55,42.71c0,1.92,1.56,3.49,3.49,3.49c1.92,0,3.49-1.56,3.49-3.49c0-1.92-1.56-3.49-3.49-3.49
			C304.12,39.22,302.55,40.79,302.55,42.71z M307.39,42.71c0,0.74-0.61,1.35-1.35,1.35c-0.74,0-1.35-0.61-1.35-1.35
			c0-0.74,0.61-1.35,1.35-1.35C306.79,41.36,307.39,41.97,307.39,42.71z"/>
		<path class="st2" d="M299.86,42.71c0,3.41,2.77,6.18,6.18,6.18c3.41,0,6.18-2.77,6.18-6.18c0-3.41-2.77-6.18-6.18-6.18
			C302.63,36.53,299.86,39.3,299.86,42.71z M311.15,42.71c0,2.82-2.29,5.11-5.11,5.11c-2.82,0-5.11-2.29-5.11-5.11
			c0-2.82,2.29-5.11,5.11-5.11C308.86,37.6,311.15,39.89,311.15,42.71z"/>
		<path class="st2" d="M306.74,32.47c-0.23-0.02-0.47-0.02-0.7-0.02h-0.03l0,0.95c-0.21,0-0.43,0.01-0.64,0.03l-0.07-0.95
			c-0.23,0.02-0.47,0.04-0.7,0.07l0.13,0.94c-0.21,0.03-0.42,0.06-0.63,0.11l-0.19-0.93c-0.23,0.05-0.46,0.1-0.68,0.17l0.26,0.91
			c-0.2,0.06-0.41,0.12-0.61,0.19l-0.32-0.89c-0.22,0.08-0.44,0.17-0.65,0.26l0.38,0.87c-0.19,0.09-0.39,0.18-0.57,0.28l-0.44-0.84
			c-0.21,0.11-0.41,0.22-0.61,0.35l0.5,0.81c-0.18,0.11-0.36,0.23-0.53,0.35l-0.55-0.78c-0.19,0.13-0.38,0.28-0.56,0.42l0.6,0.74
			c-0.16,0.13-0.32,0.28-0.48,0.42l-0.65-0.69c-0.17,0.16-0.34,0.33-0.49,0.5l0.7,0.65c-0.14,0.16-0.28,0.31-0.42,0.48l-0.74-0.6
			c-0.15,0.18-0.29,0.37-0.42,0.56l0.78,0.55c-0.12,0.17-0.24,0.35-0.35,0.53l-0.81-0.49c-0.12,0.2-0.24,0.4-0.34,0.61l0.84,0.44
			c-0.1,0.19-0.19,0.38-0.27,0.57l-0.87-0.38c-0.09,0.21-0.18,0.43-0.26,0.65l0.89,0.32c-0.07,0.2-0.13,0.4-0.19,0.61l-0.91-0.25
			c-0.06,0.22-0.12,0.45-0.16,0.68l0.93,0.19c-0.04,0.21-0.08,0.42-0.1,0.63l-0.94-0.13c-0.03,0.23-0.05,0.46-0.07,0.7l0.95,0.06
			c-0.01,0.2-0.02,0.41-0.02,0.62c0,0.01,0,0.01,0,0.02l-0.95,0c0,0.23,0.01,0.47,0.02,0.7l0.95-0.07c0.01,0.21,0.04,0.42,0.07,0.63
			l-0.94,0.13c0.03,0.23,0.07,0.46,0.12,0.69l0.93-0.19c0.04,0.21,0.1,0.41,0.15,0.62l-0.91,0.26c0.06,0.22,0.13,0.45,0.21,0.67
			l0.89-0.32c0.07,0.2,0.15,0.4,0.24,0.59l-0.87,0.38c0.09,0.21,0.19,0.43,0.3,0.63l0.84-0.44c0.1,0.19,0.2,0.37,0.31,0.55
			l-0.81,0.5c0.12,0.2,0.25,0.39,0.39,0.58l0.78-0.55c0.12,0.17,0.25,0.34,0.38,0.51l-0.74,0.6c0.15,0.18,0.3,0.36,0.46,0.53
			l0.69-0.65c0.14,0.15,0.29,0.3,0.45,0.45l-0.65,0.7c0.17,0.16,0.35,0.31,0.53,0.46l0.6-0.74c0.16,0.13,0.33,0.26,0.51,0.38
			l-0.55,0.78c0.19,0.13,0.39,0.26,0.59,0.38l0.49-0.81c0.18,0.11,0.37,0.21,0.56,0.31l-0.44,0.84c0.21,0.11,0.42,0.21,0.63,0.3
			l0.38-0.87c0.19,0.08,0.39,0.16,0.59,0.23l-0.32,0.89c0.22,0.08,0.44,0.15,0.67,0.21l0.25-0.91c0.2,0.06,0.41,0.11,0.62,0.15
			l-0.19,0.93c0.23,0.05,0.46,0.09,0.69,0.12l0.13-0.94c0.21,0.03,0.42,0.05,0.63,0.06l-0.06,0.95c0.23,0.02,0.46,0.02,0.69,0.02
			h0.01v-0.95c0.21,0,0.43-0.01,0.64-0.02l0.07,0.95c0.23-0.02,0.47-0.04,0.7-0.07l-0.13-0.94c0.21-0.03,0.42-0.06,0.63-0.11
			l0.19,0.93c0.23-0.05,0.46-0.1,0.68-0.17l-0.26-0.91c0.2-0.06,0.41-0.12,0.61-0.19l0.32,0.89c0.22-0.08,0.44-0.16,0.65-0.26
			l-0.38-0.87c0.19-0.09,0.39-0.18,0.57-0.27l0.44,0.84c0.21-0.11,0.41-0.22,0.61-0.34l-0.49-0.81c0.18-0.11,0.36-0.23,0.53-0.35
			l0.55,0.78c0.19-0.13,0.38-0.28,0.56-0.42l-0.6-0.74c0.16-0.13,0.32-0.27,0.48-0.42l0.65,0.7c0.17-0.16,0.34-0.33,0.5-0.5
			l-0.7-0.65c0.14-0.16,0.28-0.31,0.42-0.48l0.74,0.6c0.15-0.18,0.29-0.37,0.42-0.56l-0.78-0.55c0.12-0.17,0.24-0.35,0.35-0.53
			l0.81,0.49c0.12-0.2,0.24-0.4,0.34-0.61l-0.84-0.44c0.1-0.19,0.19-0.38,0.27-0.57l0.87,0.38c0.09-0.21,0.18-0.43,0.26-0.65
			l-0.89-0.32c0.07-0.2,0.13-0.4,0.19-0.61l0.91,0.25c0.06-0.22,0.12-0.45,0.16-0.68l-0.93-0.19c0.04-0.21,0.08-0.42,0.11-0.63
			l0.94,0.13c0.03-0.23,0.05-0.46,0.07-0.7l-0.95-0.06c0.01-0.21,0.02-0.42,0.02-0.63c0,0,0,0,0-0.01l0.95,0
			c0-0.23-0.01-0.47-0.02-0.7l-0.95,0.06c-0.01-0.21-0.04-0.42-0.06-0.63l0.94-0.13c-0.03-0.23-0.07-0.46-0.12-0.69l-0.93,0.19
			c-0.04-0.21-0.1-0.41-0.15-0.62l0.91-0.26c-0.06-0.22-0.13-0.45-0.21-0.67l-0.89,0.32c-0.07-0.2-0.15-0.4-0.23-0.59l0.87-0.38
			c-0.09-0.21-0.19-0.43-0.3-0.63l-0.84,0.44c-0.1-0.19-0.2-0.37-0.31-0.55l0.81-0.49c-0.12-0.2-0.25-0.4-0.38-0.59l-0.78,0.55
			c-0.12-0.17-0.25-0.34-0.38-0.51l0.74-0.6c-0.15-0.18-0.3-0.36-0.46-0.53l-0.7,0.65c-0.14-0.15-0.29-0.3-0.45-0.45l0.65-0.7
			c-0.17-0.16-0.35-0.31-0.53-0.46l-0.6,0.74c-0.16-0.13-0.33-0.26-0.51-0.38l0.55-0.78c-0.19-0.13-0.39-0.26-0.59-0.39l-0.49,0.81
			c-0.18-0.11-0.37-0.21-0.56-0.31l0.44-0.84c-0.21-0.11-0.42-0.21-0.63-0.3l-0.38,0.87c-0.19-0.08-0.39-0.16-0.59-0.23l0.32-0.89
			c-0.22-0.08-0.44-0.15-0.67-0.21l-0.26,0.91c-0.2-0.06-0.41-0.11-0.62-0.15l0.19-0.93c-0.23-0.05-0.46-0.09-0.69-0.12l-0.13,0.94
			c-0.21-0.03-0.42-0.05-0.63-0.06L306.74,32.47z M313.76,42.71c0,4.25-3.46,7.72-7.72,7.72c-4.25,0-7.72-3.46-7.72-7.72
			c0-4.25,3.46-7.72,7.72-7.72C310.3,34.99,313.76,38.45,313.76,42.71z"/>
	</g>
	<g>
		<path class="st2" d="M381.47,53.69c0,3.74,3.05,6.79,6.79,6.79c3.74,0,6.79-3.05,6.79-6.79c0-3.74-3.05-6.79-6.79-6.79
			C384.51,46.91,381.47,49.95,381.47,53.69z M393.89,53.69c0,3.11-2.53,5.64-5.64,5.64s-5.64-2.53-5.64-5.64
			c0-3.11,2.53-5.64,5.64-5.64S393.89,50.59,393.89,53.69z"/>
		<path class="st2" d="M383.38,53.69c0,2.69,2.19,4.88,4.88,4.88c2.69,0,4.88-2.19,4.88-4.88c0-2.69-2.19-4.88-4.88-4.88
			C385.56,48.81,383.38,51,383.38,53.69z M392.77,53.69c0,2.49-2.03,4.52-4.52,4.52s-4.52-2.03-4.52-4.52
			c0-2.49,2.03-4.52,4.52-4.52S392.77,51.2,392.77,53.69z"/>
		<path class="st2" d="M379.41,53.69c0,4.87,3.97,8.84,8.84,8.84s8.84-3.97,8.84-8.84c0-4.87-3.97-8.84-8.84-8.84
			S379.41,48.82,379.41,53.69z M396.74,53.69c0,4.68-3.8,8.48-8.48,8.48c-4.68,0-8.48-3.8-8.48-8.48c0-4.68,3.8-8.48,8.48-8.48
			C392.93,45.21,396.74,49.02,396.74,53.69z"/>
		<path class="st2" d="M385.93,53.69c0,1.28,1.04,2.32,2.32,2.32c1.28,0,2.32-1.04,2.32-2.32c0-1.28-1.04-2.32-2.32-2.32
			C386.97,51.37,385.93,52.41,385.93,53.69z"/>
		<path class="st2" d="M390.26,41.39c-0.66-0.11-1.34-0.16-2.01-0.16l-0.03,0l0,0.7c-0.83,0-1.64,0.09-2.42,0.26l-0.15-0.68
			c-0.66,0.14-1.31,0.33-1.93,0.58l0.26,0.66c-0.76,0.3-1.49,0.67-2.16,1.12l-0.39-0.59c-0.56,0.37-1.1,0.78-1.59,1.24l0.48,0.52
			c-0.6,0.55-1.14,1.16-1.62,1.82l-0.57-0.41c-0.39,0.55-0.74,1.13-1.04,1.73l0.63,0.31c-0.36,0.72-0.65,1.48-0.85,2.28l-0.68-0.17
			c-0.17,0.65-0.28,1.32-0.34,1.99l0.7,0.06c-0.03,0.35-0.05,0.71-0.05,1.06c0,0.46,0.03,0.92,0.08,1.37l-0.7,0.08
			c0.08,0.67,0.21,1.33,0.39,1.98l0.68-0.19c0.23,0.79,0.53,1.55,0.91,2.26l-0.62,0.33c0.31,0.59,0.68,1.16,1.09,1.7l0.56-0.43
			c0.49,0.65,1.05,1.24,1.66,1.78l-0.46,0.53c0.51,0.44,1.05,0.84,1.62,1.2l0.37-0.6c0.69,0.43,1.42,0.78,2.19,1.06l-0.24,0.66
			c0.63,0.23,1.29,0.4,1.95,0.53l0.13-0.69c0.7,0.13,1.41,0.2,2.15,0.2c0.09,0,0.19,0,0.28-0.01l0.02,0.7
			c0.67-0.02,1.35-0.09,2.01-0.21l-0.13-0.69c0.81-0.15,1.59-0.39,2.33-0.69l0.27,0.65c0.62-0.26,1.22-0.57,1.79-0.92l-0.37-0.6
			c0.69-0.43,1.34-0.93,1.92-1.49l0.49,0.51c0.49-0.46,0.94-0.97,1.34-1.51l-0.56-0.42c0.49-0.65,0.91-1.34,1.26-2.08l0.64,0.3
			c0.29-0.61,0.52-1.25,0.71-1.89l-0.68-0.19c0.22-0.77,0.36-1.57,0.42-2.4l0.7,0.05c0.02-0.28,0.03-0.57,0.03-0.86
			c0-0.39-0.02-0.77-0.05-1.15l-0.7,0.06c-0.08-0.82-0.24-1.62-0.47-2.39l0.67-0.21c-0.2-0.64-0.45-1.27-0.75-1.87l-0.63,0.31
			c-0.37-0.73-0.81-1.42-1.31-2.05l0.55-0.44c-0.42-0.53-0.88-1.02-1.38-1.47L396.18,45c-0.6-0.55-1.26-1.03-1.96-1.45l0.36-0.61
			c-0.58-0.34-1.19-0.64-1.82-0.88l-0.25,0.66c-0.75-0.29-1.54-0.51-2.35-0.64L390.26,41.39z M388.23,42.22l0,0.72
			c-0.76,0-1.5,0.08-2.22,0.24l-0.15-0.7C386.63,42.31,387.42,42.22,388.23,42.22z M397.86,53.69c0,5.3-4.31,9.6-9.6,9.6
			c-5.3,0-9.6-4.31-9.6-9.6c0-5.3,4.31-9.6,9.6-9.6C393.55,44.09,397.86,48.4,397.86,53.69z M384.09,43l0.26,0.67
			c-0.7,0.27-1.36,0.62-1.98,1.02l-0.39-0.6C382.64,43.66,383.34,43.29,384.09,43z M380.51,45.23l0.49,0.53
			c-0.55,0.5-1.04,1.06-1.48,1.67l-0.58-0.42C379.4,46.36,379.93,45.77,380.51,45.23z M377.97,48.6l0.64,0.32
			c-0.33,0.66-0.59,1.36-0.78,2.08l-0.7-0.18C377.34,50.05,377.62,49.3,377.97,48.6z M376.78,53.69c0-0.35,0.02-0.7,0.05-1.04
			l0.72,0.06c-0.03,0.32-0.05,0.65-0.05,0.97c0,0.42,0.03,0.84,0.08,1.25l-0.72,0.08C376.81,54.59,376.78,54.15,376.78,53.69z
			 M377.22,56.85l0.69-0.2c0.21,0.72,0.49,1.41,0.83,2.06l-0.64,0.34C377.74,58.36,377.44,57.62,377.22,56.85z M379.11,60.62
			l0.57-0.44c0.45,0.59,0.96,1.14,1.52,1.62l-0.47,0.54C380.14,61.83,379.59,61.25,379.11,60.62z M382.23,63.46l0.38-0.61
			c0.63,0.39,1.3,0.72,2,0.97l-0.24,0.68C383.61,64.22,382.9,63.87,382.23,63.46z M388.25,65.17c-0.72,0-1.42-0.07-2.09-0.2
			l0.13-0.71c0.64,0.12,1.29,0.18,1.96,0.18c0.09,0,0.17,0,0.26-0.01l0.02,0.72C388.44,65.17,388.35,65.17,388.25,65.17z
			 M390.38,64.97l-0.13-0.71c0.74-0.14,1.45-0.35,2.13-0.63l0.28,0.67C391.93,64.59,391.17,64.82,390.38,64.97z M394.3,63.44
			l-0.38-0.61c0.63-0.39,1.22-0.85,1.76-1.37l0.5,0.52C395.61,62.53,394.98,63.02,394.3,63.44z M397.41,60.6l-0.57-0.43
			c0.45-0.59,0.83-1.23,1.15-1.91l0.65,0.31C398.3,59.29,397.89,59.97,397.41,60.6z M399.29,56.83l-0.69-0.2
			c0.2-0.7,0.33-1.44,0.38-2.19l0.72,0.05C399.65,55.29,399.51,56.07,399.29,56.83z M399.68,52.63l-0.72,0.07
			c-0.07-0.75-0.22-1.48-0.43-2.18l0.69-0.21C399.45,51.05,399.61,51.83,399.68,52.63z M398.52,48.58l-0.64,0.32
			c-0.33-0.67-0.74-1.3-1.2-1.88l0.56-0.45C397.74,47.19,398.17,47.86,398.52,48.58z M395.98,45.22l-0.49,0.53
			c-0.55-0.5-1.15-0.94-1.79-1.32l0.37-0.62C394.76,44.21,395.4,44.68,395.98,45.22z M392.4,42.99l-0.26,0.67
			c-0.68-0.27-1.4-0.46-2.15-0.59l0.12-0.71C390.9,42.5,391.67,42.71,392.4,42.99z"/>
	</g>
	<g>
		<path class="st2" d="M404.81,92.3c0,1.54,1.25,2.8,2.8,2.8c1.54,0,2.8-1.25,2.8-2.8c0-1.54-1.25-2.8-2.8-2.8
			C406.06,89.51,404.81,90.76,404.81,92.3z M410.18,92.3c0,1.42-1.15,2.57-2.57,2.57c-1.42,0-2.57-1.15-2.57-2.57
			s1.15-2.57,2.57-2.57C409.02,89.74,410.18,90.89,410.18,92.3z"/>
		<path class="st2" d="M405.83,92.3c0,0.98,0.79,1.77,1.77,1.77c0.98,0,1.77-0.79,1.77-1.77c0-0.98-0.79-1.77-1.77-1.77
			C406.63,90.53,405.83,91.33,405.83,92.3z"/>
		<path class="st2" d="M403.28,92.3c0,2.39,1.94,4.33,4.33,4.33c2.39,0,4.33-1.94,4.33-4.33c0-2.39-1.94-4.33-4.33-4.33
			C405.22,87.98,403.28,89.92,403.28,92.3z M411.14,92.3c0,1.95-1.59,3.53-3.53,3.53c-1.95,0-3.53-1.59-3.53-3.53
			c0-1.95,1.59-3.53,3.53-3.53C409.56,88.77,411.14,90.36,411.14,92.3z"/>
		<path class="st2" d="M401.06,92.3c0,3.61,2.94,6.55,6.55,6.55c3.61,0,6.55-2.94,6.55-6.55c0-3.61-2.94-6.55-6.55-6.55
			C404,85.76,401.06,88.69,401.06,92.3z M413.7,92.3c0,3.36-2.73,6.09-6.09,6.09c-3.36,0-6.09-2.73-6.09-6.09
			c0-3.36,2.73-6.09,6.09-6.09C410.97,86.21,413.7,88.94,413.7,92.3z"/>
		<path class="st2" d="M407.59,84.11c-0.58,0-1.15,0.06-1.7,0.18l-0.27-1.26c-0.65,0.14-1.28,0.35-1.88,0.62l0.53,1.18
			c-0.52,0.24-1.02,0.52-1.48,0.86l-0.76-1.04c-0.53,0.39-1.03,0.84-1.47,1.33l0.96,0.86c-0.38,0.42-0.72,0.89-1,1.39l-1.12-0.65
			c-0.33,0.57-0.6,1.18-0.8,1.81l1.23,0.4c-0.17,0.54-0.29,1.1-0.35,1.67l-1.28-0.13c-0.07,0.65-0.07,1.33,0,1.98l1.28-0.14
			c0.06,0.58,0.18,1.14,0.36,1.67l-1.23,0.4c0.21,0.63,0.48,1.24,0.81,1.81l1.12-0.65c0.29,0.5,0.63,0.96,1.01,1.38l-0.96,0.87
			c0.44,0.49,0.94,0.94,1.47,1.32l0.76-1.05c0.46,0.33,0.96,0.62,1.48,0.86l-0.52,1.18c0.6,0.27,1.24,0.47,1.89,0.61l0.27-1.26
			c0.55,0.12,1.11,0.18,1.69,0.18c0,0,0.01,0,0.01,0l0,1.29c0.66,0,1.33-0.07,1.97-0.21l-0.27-1.26c0.57-0.12,1.11-0.3,1.63-0.53
			l0.53,1.18c0.6-0.27,1.18-0.6,1.71-0.99l-0.76-1.04c0.46-0.34,0.89-0.72,1.27-1.15l0.96,0.86c0.44-0.49,0.83-1.03,1.16-1.6
			l-1.12-0.65c0.28-0.49,0.52-1.01,0.7-1.56l1.23,0.4c0.2-0.63,0.34-1.28,0.41-1.94l-1.28-0.13c0.03-0.28,0.04-0.56,0.04-0.85
			c0-0.29-0.02-0.58-0.05-0.86l1.28-0.13c-0.07-0.66-0.21-1.31-0.41-1.94l-1.23,0.4c-0.18-0.55-0.41-1.07-0.7-1.56l1.12-0.65
			c-0.33-0.57-0.72-1.11-1.17-1.6l-0.96,0.87c-0.38-0.42-0.81-0.81-1.27-1.15l0.76-1.05c-0.54-0.39-1.11-0.72-1.72-0.99l-0.53,1.18
			c-0.52-0.23-1.06-0.41-1.63-0.53l0.27-1.26c-0.64-0.14-1.31-0.21-1.97-0.21h-0.03L407.59,84.11z M415.46,92.3
			c0,4.33-3.52,7.85-7.85,7.85c-4.33,0-7.85-3.52-7.85-7.85c0-4.33,3.52-7.85,7.85-7.85C411.94,84.45,415.46,87.97,415.46,92.3z"/>
	</g>
	<g>
		<path class="st2" d="M357.89,125.84c0-2.25-1.83-4.08-4.08-4.08c-2.25,0-4.08,1.83-4.08,4.08c0,2.25,1.83,4.08,4.08,4.08
			C356.06,129.92,357.89,128.09,357.89,125.84z M351.85,125.84c0-1.08,0.88-1.95,1.96-1.95s1.95,0.87,1.95,1.95
			c0,1.08-0.87,1.96-1.95,1.96S351.85,126.92,351.85,125.84z"/>
		<path class="st2" d="M353.82,131.33c0.27,0,0.54-0.02,0.8-0.06l0.14,0.93c0.12-0.02,0.24-0.04,0.36-0.06l-0.19-0.92
			c0.26-0.06,0.52-0.13,0.77-0.22l0.32,0.89c0.12-0.04,0.23-0.09,0.34-0.14l-0.37-0.87c0.25-0.11,0.48-0.23,0.71-0.37l0.5,0.8
			c0.1-0.06,0.21-0.13,0.31-0.2l-0.54-0.78c0.22-0.15,0.42-0.32,0.62-0.5l0.65,0.69c0.09-0.08,0.18-0.17,0.26-0.26l-0.69-0.65
			c0.19-0.19,0.35-0.4,0.51-0.62l0.77,0.55c0.07-0.1,0.14-0.2,0.2-0.31l-0.81-0.5c0.14-0.22,0.26-0.46,0.37-0.71l0.87,0.38
			c0.05-0.11,0.09-0.23,0.14-0.34l-0.89-0.33c0.09-0.25,0.17-0.5,0.22-0.77l0.92,0.19c0.02-0.12,0.05-0.24,0.07-0.36l-0.93-0.14
			c0.04-0.26,0.06-0.53,0.06-0.8l0.94,0v-0.03c0-0.11,0-0.22-0.01-0.34l-0.94,0.05c-0.01-0.27-0.05-0.53-0.1-0.79l0.93-0.18
			c-0.02-0.12-0.05-0.24-0.08-0.36l-0.91,0.24c-0.07-0.26-0.16-0.51-0.26-0.76l0.87-0.37c-0.05-0.11-0.1-0.22-0.15-0.33l-0.85,0.42
			c-0.12-0.24-0.25-0.47-0.4-0.69l0.78-0.54c-0.07-0.1-0.14-0.2-0.22-0.3l-0.75,0.58c-0.16-0.21-0.34-0.41-0.53-0.59l0.66-0.68
			c-0.09-0.08-0.18-0.17-0.27-0.25l-0.62,0.72c-0.2-0.18-0.42-0.33-0.64-0.48l0.51-0.8c-0.1-0.07-0.21-0.13-0.32-0.19l-0.46,0.83
			c-0.23-0.13-0.47-0.24-0.72-0.34l0.33-0.89c-0.12-0.04-0.23-0.08-0.35-0.12l-0.28,0.9c-0.25-0.08-0.51-0.14-0.78-0.18l0.15-0.93
			c-0.12-0.02-0.24-0.03-0.36-0.05l-0.09,0.94c-0.18-0.02-0.36-0.03-0.55-0.03c-0.08,0-0.17,0-0.25,0.01l-0.04-0.95
			c-0.12,0.01-0.25,0.02-0.37,0.03l0.1,0.94c-0.27,0.03-0.53,0.07-0.79,0.14l-0.23-0.91c-0.12,0.03-0.24,0.06-0.35,0.1l0.28,0.9
			c-0.25,0.08-0.5,0.18-0.74,0.3l-0.41-0.85c-0.11,0.05-0.22,0.11-0.33,0.17l0.46,0.83c-0.23,0.13-0.46,0.27-0.67,0.44l-0.58-0.75
			c-0.1,0.07-0.19,0.15-0.28,0.23l0.62,0.72c-0.2,0.17-0.39,0.36-0.57,0.56l-0.71-0.62c-0.08,0.09-0.16,0.19-0.23,0.28l0.75,0.58
			c-0.16,0.21-0.31,0.43-0.44,0.67l-0.82-0.46c-0.06,0.11-0.12,0.21-0.17,0.32l0.85,0.42c-0.12,0.24-0.22,0.49-0.3,0.74l-0.9-0.29
			c-0.04,0.12-0.07,0.23-0.1,0.35l0.91,0.23c-0.07,0.25-0.11,0.52-0.14,0.79l-0.94-0.1c-0.01,0.12-0.02,0.24-0.03,0.37l0.94,0.05
			c-0.01,0.09-0.01,0.18-0.01,0.27c0,0.18,0.01,0.35,0.03,0.52l-0.94,0.09c0.01,0.12,0.03,0.24,0.05,0.36l0.93-0.14
			c0.04,0.27,0.1,0.53,0.18,0.78l-0.9,0.28c0.04,0.12,0.08,0.23,0.12,0.35l0.89-0.33c0.09,0.25,0.21,0.49,0.33,0.73l-0.83,0.45
			c0.06,0.11,0.12,0.21,0.18,0.31l0.8-0.5c0.14,0.23,0.3,0.44,0.47,0.64L348.9,130c0.08,0.09,0.16,0.18,0.25,0.27l0.69-0.65
			c0.18,0.19,0.38,0.37,0.59,0.54l-0.58,0.75c0.1,0.07,0.19,0.15,0.29,0.22l0.54-0.78c0.22,0.16,0.45,0.29,0.69,0.41l-0.42,0.85
			c0.11,0.06,0.22,0.11,0.33,0.16l0.37-0.87c0.24,0.11,0.49,0.19,0.76,0.26l-0.24,0.91c0.12,0.03,0.24,0.06,0.36,0.08l0.19-0.92
			c0.26,0.05,0.52,0.09,0.79,0.1l-0.05,0.94c0.12,0.01,0.24,0.01,0.36,0.01h0.02L353.82,131.33z M349.11,125.84
			c0-2.59,2.11-4.7,4.7-4.7s4.7,2.11,4.7,4.7c0,2.59-2.11,4.7-4.7,4.7S349.11,128.43,349.11,125.84z"/>
	</g>
	<g>
		<path class="st2" d="M398.48,148.11c0,1.48,1.2,2.68,2.68,2.68s2.68-1.2,2.68-2.68c0-1.48-1.2-2.68-2.68-2.68
			S398.48,146.64,398.48,148.11z M402.19,148.11c0,0.57-0.46,1.04-1.04,1.04c-0.57,0-1.04-0.46-1.04-1.04
			c0-0.57,0.46-1.04,1.04-1.04C401.73,147.08,402.19,147.54,402.19,148.11z"/>
		<path class="st2" d="M396.41,148.11c0,2.61,2.13,4.74,4.74,4.74c2.61,0,4.74-2.13,4.74-4.74c0-2.61-2.13-4.74-4.74-4.74
			C398.54,143.37,396.41,145.5,396.41,148.11z M405.08,148.11c0,2.16-1.76,3.92-3.92,3.92s-3.92-1.76-3.92-3.92
			c0-2.16,1.76-3.92,3.92-3.92S405.08,145.95,405.08,148.11z"/>
		<path class="st2" d="M401.69,140.25c-0.18-0.01-0.36-0.02-0.54-0.02h-0.02l0,0.73c-0.16,0-0.33,0.01-0.49,0.02l-0.05-0.73
			c-0.18,0.01-0.36,0.03-0.53,0.06l0.1,0.72c-0.16,0.02-0.32,0.05-0.48,0.08l-0.15-0.71c-0.17,0.04-0.35,0.08-0.52,0.13l0.2,0.7
			c-0.16,0.04-0.31,0.09-0.47,0.15l-0.25-0.69c-0.17,0.06-0.34,0.13-0.5,0.2l0.29,0.67c-0.15,0.07-0.3,0.14-0.44,0.21l-0.34-0.65
			c-0.16,0.08-0.32,0.17-0.47,0.26l0.38,0.62c-0.14,0.09-0.27,0.18-0.41,0.27l-0.42-0.6c-0.15,0.1-0.29,0.21-0.43,0.33l0.46,0.56
			c-0.13,0.1-0.25,0.21-0.37,0.32l-0.5-0.53c-0.13,0.12-0.26,0.25-0.38,0.38l0.53,0.5c-0.11,0.12-0.22,0.24-0.32,0.37l-0.57-0.46
			c-0.11,0.14-0.22,0.28-0.32,0.43l0.6,0.42c-0.09,0.13-0.18,0.27-0.27,0.41l-0.62-0.38c-0.09,0.15-0.18,0.31-0.26,0.47l0.65,0.34
			c-0.07,0.14-0.15,0.29-0.21,0.44l-0.67-0.29c-0.07,0.16-0.14,0.33-0.2,0.5l0.69,0.24c-0.05,0.15-0.1,0.31-0.15,0.47l-0.7-0.19
			c-0.05,0.17-0.09,0.35-0.13,0.52l0.71,0.15c-0.03,0.16-0.06,0.32-0.08,0.48l-0.72-0.1c-0.02,0.18-0.04,0.36-0.05,0.53l0.73,0.05
			c-0.01,0.16-0.02,0.31-0.02,0.47c0,0,0,0.01,0,0.01l-0.73,0c0,0.18,0.01,0.36,0.02,0.54l0.73-0.05c0.01,0.16,0.03,0.33,0.05,0.49
			l-0.72,0.1c0.02,0.18,0.06,0.36,0.09,0.53l0.71-0.15c0.03,0.16,0.07,0.32,0.12,0.47l-0.7,0.2c0.05,0.17,0.1,0.34,0.16,0.51
			l0.69-0.25c0.05,0.15,0.12,0.3,0.18,0.45l-0.67,0.29c0.07,0.16,0.15,0.33,0.23,0.48l0.65-0.34c0.08,0.14,0.15,0.29,0.24,0.42
			l-0.62,0.38c0.09,0.15,0.19,0.3,0.3,0.45l0.6-0.42c0.09,0.13,0.19,0.26,0.29,0.39l-0.56,0.46c0.11,0.14,0.23,0.27,0.35,0.4
			l0.53-0.5c0.11,0.12,0.23,0.23,0.35,0.34l-0.5,0.53c0.13,0.12,0.27,0.24,0.41,0.35l0.46-0.57c0.13,0.1,0.26,0.2,0.39,0.29
			l-0.42,0.6c0.15,0.1,0.3,0.2,0.45,0.29l0.38-0.62c0.14,0.08,0.28,0.16,0.43,0.24l-0.34,0.65c0.16,0.08,0.32,0.16,0.49,0.23
			l0.29-0.67c0.15,0.06,0.3,0.12,0.45,0.18l-0.24,0.69c0.17,0.06,0.34,0.11,0.51,0.16l0.2-0.7c0.16,0.04,0.31,0.08,0.47,0.12
			l-0.15,0.71c0.17,0.04,0.35,0.07,0.53,0.09l0.1-0.72c0.16,0.02,0.32,0.04,0.49,0.05l-0.05,0.73c0.17,0.01,0.35,0.02,0.53,0.02
			h0.01v-0.73c0.16,0,0.33-0.01,0.49-0.02l0.05,0.73c0.18-0.01,0.36-0.03,0.53-0.05l-0.1-0.72c0.16-0.02,0.32-0.05,0.48-0.08
			l0.15,0.71c0.17-0.04,0.35-0.08,0.52-0.13l-0.2-0.7c0.16-0.04,0.31-0.09,0.47-0.15l0.24,0.69c0.17-0.06,0.34-0.13,0.5-0.2
			l-0.29-0.67c0.15-0.07,0.3-0.14,0.44-0.21l0.34,0.65c0.16-0.08,0.32-0.17,0.47-0.26l-0.38-0.62c0.14-0.08,0.27-0.18,0.41-0.27
			l0.42,0.6c0.15-0.1,0.29-0.21,0.43-0.33l-0.46-0.57c0.13-0.1,0.25-0.21,0.37-0.32l0.5,0.53c0.13-0.12,0.26-0.25,0.38-0.38
			l-0.53-0.5c0.11-0.12,0.22-0.24,0.32-0.37l0.57,0.46c0.11-0.14,0.22-0.28,0.33-0.43l-0.6-0.42c0.09-0.13,0.18-0.27,0.27-0.41
			l0.62,0.38c0.09-0.15,0.18-0.31,0.26-0.47l-0.65-0.34c0.07-0.14,0.15-0.29,0.21-0.44l0.67,0.29c0.07-0.16,0.14-0.33,0.2-0.5
			l-0.69-0.24c0.05-0.15,0.1-0.31,0.15-0.47l0.7,0.2c0.05-0.17,0.09-0.35,0.13-0.52l-0.71-0.15c0.03-0.16,0.06-0.32,0.08-0.48
			l0.72,0.1c0.02-0.18,0.04-0.36,0.05-0.53l-0.73-0.05c0.01-0.16,0.02-0.32,0.02-0.48c0,0,0,0,0,0l0.73,0
			c0-0.18-0.01-0.36-0.02-0.54l-0.73,0.05c-0.01-0.16-0.03-0.33-0.05-0.49l0.72-0.1c-0.02-0.18-0.05-0.36-0.09-0.53l-0.71,0.15
			c-0.03-0.16-0.07-0.32-0.12-0.47l0.7-0.2c-0.05-0.17-0.1-0.34-0.16-0.51l-0.69,0.24c-0.05-0.15-0.11-0.3-0.18-0.45l0.67-0.29
			c-0.07-0.16-0.15-0.33-0.23-0.49l-0.65,0.34c-0.08-0.14-0.15-0.29-0.24-0.43l0.62-0.38c-0.09-0.15-0.19-0.3-0.3-0.45l-0.6,0.42
			c-0.09-0.13-0.19-0.26-0.29-0.39l0.57-0.46c-0.11-0.14-0.23-0.27-0.35-0.4l-0.53,0.5c-0.11-0.12-0.23-0.23-0.35-0.35l0.5-0.53
			c-0.13-0.12-0.27-0.24-0.41-0.35l-0.46,0.57c-0.13-0.1-0.26-0.2-0.39-0.29l0.42-0.6c-0.15-0.1-0.3-0.2-0.45-0.3l-0.38,0.62
			c-0.14-0.08-0.28-0.16-0.43-0.24l0.34-0.65c-0.16-0.08-0.32-0.16-0.49-0.23l-0.29,0.67c-0.15-0.06-0.3-0.12-0.45-0.18l0.24-0.69
			c-0.17-0.06-0.34-0.11-0.51-0.16l-0.2,0.7c-0.16-0.04-0.31-0.08-0.47-0.12l0.15-0.71c-0.17-0.04-0.35-0.07-0.53-0.09l-0.1,0.72
			c-0.16-0.02-0.32-0.04-0.49-0.05L401.69,140.25z M407.08,148.11c0,3.27-2.66,5.92-5.92,5.92s-5.92-2.66-5.92-5.92
			c0-3.27,2.66-5.92,5.92-5.92S407.08,144.85,407.08,148.11z"/>
	</g>
	<g>
		<circle class="st2" cx="377.35" cy="184.13" r="3.33"/>
		<path class="st2" d="M372.4,184.13c0,2.73,2.22,4.95,4.95,4.95c2.73,0,4.95-2.22,4.95-4.95c0-2.73-2.22-4.95-4.95-4.95
			C374.62,179.18,372.4,181.4,372.4,184.13z M381.86,184.13c0,2.48-2.02,4.51-4.51,4.51c-2.48,0-4.51-2.02-4.51-4.51
			c0-2.48,2.02-4.51,4.51-4.51C379.84,179.62,381.86,181.64,381.86,184.13z"/>
		<path class="st2" d="M369.83,184.13c0,4.15,3.37,7.52,7.52,7.52c4.15,0,7.52-3.37,7.52-7.52c0-4.15-3.37-7.52-7.52-7.52
			C373.2,176.61,369.83,179.98,369.83,184.13z M383.85,184.13c0,3.58-2.91,6.49-6.49,6.49c-3.58,0-6.49-2.91-6.49-6.49
			c0-3.58,2.91-6.49,6.49-6.49C380.93,177.64,383.85,180.55,383.85,184.13z"/>
		<path class="st2" d="M377.33,173.07c-0.59,0-1.17,0.05-1.73,0.14l-0.12-0.78c-0.61,0.1-1.22,0.24-1.81,0.44l0.25,0.75
			c-0.55,0.18-1.09,0.41-1.6,0.67l-0.36-0.71c-0.55,0.28-1.08,0.61-1.58,0.98l0.47,0.64c-0.47,0.34-0.91,0.72-1.32,1.13l-0.56-0.56
			c-0.44,0.44-0.84,0.91-1.2,1.41l0.64,0.47c-0.34,0.47-0.64,0.96-0.91,1.48l-0.71-0.36c-0.28,0.55-0.52,1.13-0.71,1.72l0.75,0.24
			c-0.18,0.55-0.31,1.11-0.4,1.69l-0.78-0.12c-0.09,0.6-0.14,1.22-0.14,1.83v0.02h0.79c0,0.59,0.05,1.17,0.14,1.73l-0.78,0.12
			c0.1,0.61,0.24,1.22,0.44,1.81l0.75-0.25c0.18,0.55,0.41,1.09,0.67,1.6l-0.71,0.36c0.28,0.55,0.61,1.08,0.97,1.58l0.64-0.47
			c0.34,0.47,0.72,0.91,1.13,1.32l-0.56,0.56c0.44,0.44,0.91,0.84,1.41,1.21l0.47-0.64c0.47,0.34,0.96,0.64,1.48,0.91l-0.36,0.71
			c0.55,0.28,1.13,0.52,1.72,0.71l0.24-0.75c0.55,0.18,1.11,0.31,1.69,0.4l-0.12,0.78c0.6,0.09,1.22,0.14,1.84,0.14h0.01v-0.79
			c0.59,0,1.17-0.05,1.73-0.14l0.12,0.78c0.61-0.1,1.22-0.24,1.81-0.43l-0.24-0.75c0.55-0.18,1.09-0.41,1.6-0.67l0.36,0.71
			c0.55-0.28,1.08-0.61,1.58-0.97l-0.47-0.64c0.47-0.34,0.91-0.72,1.32-1.13l0.56,0.56c0.44-0.44,0.84-0.91,1.21-1.41l-0.64-0.47
			c0.34-0.47,0.64-0.96,0.91-1.48l0.71,0.36c0.28-0.55,0.52-1.13,0.71-1.72l-0.75-0.24c0.18-0.55,0.31-1.11,0.41-1.69l0.78,0.12
			c0.09-0.61,0.14-1.23,0.14-1.85v-0.01l-0.79,0c0-0.59-0.05-1.17-0.14-1.73l0.78-0.12c-0.1-0.61-0.24-1.22-0.43-1.81l-0.75,0.24
			c-0.18-0.55-0.4-1.09-0.67-1.6l0.71-0.36c-0.28-0.55-0.61-1.08-0.97-1.58l-0.64,0.47c-0.34-0.47-0.72-0.91-1.13-1.32l0.56-0.56
			c-0.44-0.44-0.91-0.84-1.41-1.21l-0.47,0.64c-0.47-0.34-0.96-0.64-1.48-0.91l0.36-0.71c-0.55-0.28-1.13-0.52-1.72-0.71l-0.24,0.75
			c-0.55-0.18-1.11-0.31-1.69-0.41l0.12-0.78c-0.61-0.1-1.23-0.14-1.85-0.14h-0.02V173.07z M387.09,184.13
			c0,5.37-4.37,9.74-9.74,9.74c-5.37,0-9.74-4.37-9.74-9.74s4.37-9.74,9.74-9.74C382.72,174.39,387.09,178.76,387.09,184.13z"/>
	</g>
</g>
<g>
	<g>
		<path class="st2" d="M279.6,79.68c3.94-0.58,8.23,0.02,12.04,1.03c9.13,2.43,16.61,8.55,21.49,16.58
			c4.41,7.26,6.74,15.61,8.03,23.95c-0.03-0.16,5.54-1.23,5.5-1.47c-1.97-12.76-6.61-26.11-17.11-34.35
			c-5.72-4.49-12.83-7.05-20.08-7.35c-1.44-0.06-2.93-0.07-4.37,0.14C283.23,78.49,281.46,79.41,279.6,79.68L279.6,79.68z"/>
	</g>
</g>
</svg>
